<svg width="96" height="96" viewBox="0 0 96 96" fill="none" xmlns="http://www.w3.org/2000/svg">
<g id="Frame 28" clip-path="url(#clip0_11_231)">
<path id="Vector" d="M47.8596 17.3039C47.6966 17.3039 47.5246 17.3039 47.3616 17.3039C46.8727 17.313 46.3746 17.322 45.8857 17.3492H45.8585H45.8494C45.7227 17.3582 45.605 17.3673 45.4782 17.3673H45.451H45.4239L45.279 17.3763H45.2518H45.2247H45.1975H45.1432H45.116H45.0888H45.0617H45.0345H45.0073H44.9983L44.7538 17.3945H44.7266H44.6995H44.6723H44.6451H44.618H44.5908H44.5637C44.464 17.4035 44.3554 17.4126 44.2558 17.4216H44.2286L44.1652 17.4307C34.9202 18.309 26.6168 22.4199 20.4142 28.6316C13.3876 35.6582 9.0413 45.3741 9.0413 56.0951C9.0413 66.8161 13.3876 76.532 20.4142 83.5586C27.4408 90.5852 37.1567 94.9315 47.8777 94.9315C58.5987 94.9315 68.3146 90.5852 75.3412 83.5586C82.3678 76.532 86.7142 66.8161 86.7142 56.0951C86.7142 45.3741 82.3678 35.6582 75.3412 28.6316C69.1296 22.4199 60.8262 18.309 51.5812 17.4307L51.5178 17.4216H51.4906L51.2099 17.3945H51.1828H51.1556H51.1285H51.1013H51.0741H51.047H51.0198H50.9926H50.9655L50.7934 17.3854H50.7663H50.7391H50.7119L50.4584 17.3673H50.4312H50.4041H50.3497H50.3226H50.2954C50.1596 17.3582 50.0328 17.3492 49.897 17.3401H49.8879H49.8608C49.3718 17.313 48.8828 17.3039 48.3848 17.2948C48.2218 17.2948 48.0498 17.2948 47.8868 17.2948L47.8596 17.3039ZM52.8851 4.93492V10.5671H55.665V7.89587C55.665 6.0034 54.8953 4.29202 53.6457 3.04244C52.3961 1.79287 50.6848 1.0232 48.7923 1.0232H45.9581C44.0656 1.0232 42.3543 1.79287 41.1047 3.04244C39.8551 4.29202 39.0854 6.0034 39.0854 7.89587V10.5671H41.8653V4.93492H42.8885V10.5671H45.1975V4.93492H46.2207V10.5671H48.5297V4.93492H49.5529V10.5671H51.8619V4.93492H52.8851ZM56.6882 7.89587V11.5812H38.0713V7.89587C38.0713 5.72269 38.9587 3.74873 40.3893 2.31805C41.82 0.88738 43.794 0 45.9672 0H48.8013C50.9745 0 52.9485 0.88738 54.3792 2.31805C55.8098 3.74873 56.6972 5.72269 56.6972 7.89587H56.6882ZM51.0379 13.1387H44.6814V16.4165C45.451 16.3531 46.2388 16.3169 47.0175 16.2988H47.0447H47.0719H47.099H47.1262H47.1534H47.1805H47.2077H47.2348H47.3526H47.3797H47.4069C47.5518 16.2988 47.6966 16.2988 47.8415 16.2988C47.9864 16.2988 48.1313 16.2988 48.2762 16.2988H48.3033H48.3305H48.4482H48.4754H48.5025H48.5297H48.5569H48.584H48.6112H48.6384H48.6655C49.4533 16.3169 50.232 16.3531 51.0017 16.4165V13.1387H51.0379ZM44.1743 12.1154H52.0611V16.5071C61.3876 17.485 69.7634 21.6774 76.0475 27.9615C83.2643 35.1783 87.7193 45.1386 87.7193 56.1494C87.7193 67.1602 83.2552 77.1205 76.0475 84.3373C68.8308 91.554 58.8704 96.009 47.8596 96.009C36.8489 96.009 26.8885 91.545 19.6717 84.3373C12.455 77.1205 7.99998 67.1602 7.99998 56.1494C7.99998 45.1386 12.464 35.1783 19.6717 27.9615C25.9558 21.6774 34.3316 17.485 43.6582 16.5071V12.1154H44.1652H44.1743ZM50.1686 51.7849C49.2088 51.2779 48.1041 51.1058 47.0628 51.2779C46.0396 51.4409 45.0617 51.9389 44.292 52.7448C43.5495 53.5235 43.1149 54.4833 42.979 55.4703C42.8432 56.4844 43.0153 57.5348 43.5133 58.4675L43.6853 58.8025L40.009 62.4788L41.9287 64.3079L45.4329 60.4686L45.777 60.6316C46.7278 61.0753 47.7781 61.202 48.7923 61.0119C49.7702 60.8308 50.7119 60.3418 51.4544 59.5631C52.2241 58.7572 52.6678 57.7521 52.7855 56.7289C52.9032 55.6786 52.6859 54.592 52.1426 53.6503L51.9524 53.3243L68.5772 35.0696L67.9615 34.481L50.5218 51.957L50.1867 51.7849H50.1686ZM46.8998 50.2728C48.0407 50.0826 49.2269 50.2366 50.3045 50.7165L67.9253 33.0594L69.9807 35.0153L53.1749 53.4601C53.7091 54.5105 53.9083 55.6876 53.7725 56.8285C53.6276 58.069 53.0934 59.2733 52.1698 60.2513C51.2733 61.193 50.1505 61.7725 48.9643 61.9989C47.8687 62.2071 46.7278 62.0985 45.6774 61.691L41.974 65.7567L38.5512 62.4969L42.4357 58.6033C41.9739 57.571 41.811 56.4392 41.9649 55.3345C42.1279 54.1392 42.6531 52.9802 43.5495 52.0385C44.4822 51.0606 45.6593 50.472 46.8998 50.2728ZM34.4222 35.3594L36.7402 34.0192L34.3497 29.8812L32.0317 31.2213L34.4222 35.3594ZM37.6819 34.6531L34.0509 36.7538L30.6463 30.85L34.721 28.4958L38.1256 34.3995L37.6819 34.6531ZM25.9106 44.8489L27.2507 42.5308L23.1126 40.1404L21.7725 42.4584L25.9106 44.8489ZM28.3826 42.6033L26.2818 46.2433L20.378 42.8387L22.7323 38.764L28.6361 42.1686L28.3826 42.6123V42.6033ZM23.2846 57.3175V54.6463H18.5127V57.3175H23.2846ZM24.3079 54.1392V58.3407H17.4895V53.6321H24.3079V54.1392ZM27.2507 69.4239L25.9106 67.1058L21.7725 69.4963L23.1126 71.8144L27.2507 69.4239ZM26.5444 66.1641L28.6451 69.7951L22.7414 73.1998L20.3871 69.1251L26.2909 65.7204L26.5444 66.1641ZM36.7402 77.9355L34.4222 76.5954L32.0317 80.7334L34.3497 82.0736L36.7402 77.9355ZM34.4946 75.4635L38.1256 77.5642L34.721 83.468L30.6463 81.1138L34.0509 75.21L34.4946 75.4635ZM49.1998 80.5614H46.5286V85.3333H49.1998V80.5614ZM46.0215 79.5382H50.223V86.3565H45.5144V79.5382H46.0215ZM61.3876 82.0736L63.7057 80.7334L61.3152 76.5954L58.9972 77.9355L61.3876 82.0736ZM64.6565 81.3673L61.0164 83.468L57.6118 77.5642L61.6865 75.21L65.0911 81.1138L64.6474 81.3673H64.6565ZM72.6248 71.8234L73.9649 69.5054L69.8268 67.1149L68.4867 69.4329L72.6248 71.8234ZM75.0968 69.5778L72.996 73.2088L67.0922 69.8042L69.4465 65.7295L75.3503 69.1341L75.0968 69.5778ZM77.2247 57.3265V54.6553H72.4527V57.3265H77.2247ZM78.2479 54.1483V58.3497H71.4295V53.6412H78.2479V54.1483ZM73.9649 42.4765L72.6248 40.1585L68.4867 42.549L69.8268 44.867L73.9649 42.4765ZM73.2586 39.2077L75.3594 42.8478L69.4556 46.2524L67.1013 42.1777L73.0051 38.7731L73.2586 39.2168V39.2077ZM63.7148 31.2394L61.3967 29.8993L59.0062 34.0373L61.3243 35.3775L63.7148 31.2394ZM61.4691 28.7674L65.1092 30.8681L61.7046 36.7719L57.6299 34.4177L61.0345 28.5139L61.4782 28.7674H61.4691ZM49.2179 26.6395H46.5467V31.4114H49.2179V26.6395ZM46.0396 25.6163H50.2411V32.4346H45.5325V25.6163H46.0396ZM47.8868 24.086C39.0311 24.086 31.0085 27.6808 25.2043 33.485C19.4001 39.2892 15.8053 47.3118 15.8053 56.1675C15.8053 65.0232 19.4001 73.0458 25.2043 78.85C31.0085 84.6542 39.0311 88.249 47.8868 88.249C56.7425 88.249 64.7651 84.6542 70.5693 78.85C76.3735 73.0458 79.9683 65.0232 79.9683 56.1675C79.9683 47.3118 76.3735 39.2892 70.5693 33.485C64.7651 27.6808 56.7425 24.086 47.8868 24.086ZM23.6197 31.8913C29.8313 25.6797 38.4154 21.8404 47.8868 21.8404C57.3673 21.8404 65.9423 25.6797 72.1539 31.8913C78.3656 38.103 82.2048 46.687 82.2048 56.1585C82.2048 65.6389 78.3656 74.2139 72.1539 80.4256C65.9423 86.6372 57.3582 90.4765 47.8868 90.4765C38.4063 90.4765 29.8313 86.6372 23.6197 80.4256C17.408 74.2139 13.5687 65.6299 13.5687 56.1585C13.5687 46.678 17.408 38.103 23.6197 31.8913Z" fill="#292929"/>
</g>
<defs>
<clipPath id="clip0_11_231">
<rect width="96" height="96" fill="white"/>
</clipPath>
</defs>
</svg>
