<svg width="96" height="96" viewBox="0 0 96 96" fill="none" xmlns="http://www.w3.org/2000/svg">
<g id="Icon_2 1" clip-path="url(#clip0_22_286)">
<g id="&#208;&#161;&#208;&#187;&#208;&#190;&#208;&#185;_x0020_1">
<path id="Vector" d="M94.4349 95.8099C91.7577 95.4572 88.981 94.9145 86.1681 94.2C83.2919 93.4764 80.3434 92.5629 77.3767 91.5047L75.4683 90.8173L76.9969 89.4878C78.4259 88.2396 79.5565 86.8648 80.4519 85.3905C80.669 85.0288 80.877 84.667 81.0579 84.2961L73.2253 89.9219L72.6193 89.6686C66.4147 87.1 60.3819 83.9344 55.136 80.4341C50.1163 77.0876 45.7839 73.4245 42.6725 69.68L41.7862 68.6128L42.98 67.8982C46.4984 65.7999 49.248 63.6382 51.4639 61.4404C52.0518 60.8525 52.6035 60.2646 53.1281 59.6767L40.8817 67.3465L40.2486 66.3335C38.2588 63.1408 37.2277 59.9209 37.4447 56.7914C37.6528 53.8519 38.9462 51.0391 41.5691 48.4704L45.5578 44.5631L37.2638 41.1985C35.4097 44.9339 33.0129 47.5388 30.2724 49.3839C27.4233 51.3013 24.2034 52.3867 20.8117 53.0831L20.1514 53.2188L20.2509 48.2895L20.7393 48.2533C22.4216 48.1176 23.9502 47.8373 25.2255 47.3217C26.2023 46.9328 27.0344 46.4082 27.6856 45.7027C27.0434 45.5761 26.2837 45.5037 25.4063 45.5037C24.122 45.4947 22.6206 45.6213 20.9293 45.8474L20.3052 45.9288L20.3956 41.5151L20.8931 41.4879C23.4527 41.3432 25.6958 41.3342 27.5228 41.497C29.1418 41.6417 30.4623 41.913 31.412 42.3562L32.8501 40.3845C30.7336 40.0137 28.5539 39.7333 26.3289 39.5253C23.8959 39.2991 21.3996 39.1544 18.858 39.073L17.7365 40.7644C18.5505 44.2646 18.3244 47.4574 17.3385 50.415C16.3346 53.4268 14.5528 56.1764 12.2736 58.7722L11.8937 59.2064L8.61953 55.9051L8.95418 55.5252C10.7088 53.5354 12.1288 51.5365 13.0695 49.5196C13.8111 47.9187 14.2543 46.3178 14.2995 44.6988L5.57149 52.8299L2.40587 49.6371L7.19048 45.6394C6.73824 45.6756 6.24983 45.757 5.74334 45.8746C4.63989 46.1369 3.42791 46.571 2.11644 47.186L1.60994 47.4212L0 43.7672L0.578856 43.5863C2.29733 43.0527 3.99772 42.6456 5.68002 42.4467C7.28997 42.2477 8.87278 42.2386 10.4375 42.4467L13.9559 39.0821C12.1198 39.0911 10.2747 39.1544 8.42959 39.263C6.1413 39.3986 3.8711 39.6157 1.60994 39.9051L1.08535 39.9775L0.443187 35.835L1.013 35.7717C5.33633 35.3195 9.65966 34.9939 13.9559 34.9487C17.7998 34.9034 21.6166 35.0753 25.3973 35.5818L21.1102 30.1641C18.9575 31.7197 16.5607 32.7689 13.9468 33.3387C11.1701 33.9447 8.15825 34.0171 4.92027 33.6191L4.43187 33.5558L4.58562 28.9792L5.21875 29.1149C7.61557 29.6304 9.89482 29.6937 12.0474 29.3229C13.9378 28.9973 15.7376 28.319 17.4471 27.2969C16.5245 26.7 15.5025 26.1935 14.39 25.7774C12.9971 25.2619 11.4595 24.8911 9.7501 24.674L9.23456 24.6107L9.5873 20.2964L10.1209 20.3326C13.169 20.5587 15.9366 21.3365 18.4329 22.6842C20.5584 23.8328 22.4759 25.3885 24.1853 27.3602C24.1672 25.7141 23.6336 23.8509 22.6568 21.8159C21.3905 19.1748 19.4007 16.2534 16.8501 13.1149L16.1989 12.319L20.9112 11.9391L21.0921 12.1743C24.1491 16.1901 26.2294 19.8622 27.36 23.2087C28.4725 26.51 28.6624 29.5038 27.9298 32.172L30.209 36.1787C32.9767 36.3958 35.473 36.7305 37.7884 37.3093C39.6697 37.7796 41.4334 38.4128 43.1248 39.272L40.1943 32.5518C38.512 32.9769 36.694 33.1488 34.8218 32.8594C33.0671 32.5971 31.2673 31.9368 29.4764 30.7339L29.0694 30.4625L31.2401 26.3834L31.7557 26.9532C34.053 29.4767 36.3323 30.1279 38.5844 28.8526L37.9332 27.2517C34.668 25.1443 31.9185 22.3857 29.594 19.0934C27.2424 15.765 25.3249 11.8849 23.7602 7.55251L23.5884 7.07314L27.568 5.34562L27.767 5.87925C29.802 11.3241 32.3255 16.2715 35.9705 20.0703C35.265 17.4383 34.8037 14.6978 34.5686 11.8306C34.2791 8.25799 34.3605 4.49542 34.8218 0.542922L34.8851 0.000244141L38.8467 0.452475L38.7743 1.0042C38.5211 2.86739 38.3944 4.64918 38.4125 6.33148C38.4306 7.7334 38.5482 9.08105 38.8014 10.3473C40.1762 9.48805 41.4063 8.4027 42.5369 7.13645C43.8483 5.67122 45.006 3.95274 46.0643 2.07146L46.3537 1.56496L50.3152 4.20599L50.0077 4.65823C48.3073 7.1455 46.5436 9.26194 44.7166 11.0076C42.9891 12.6627 41.1983 13.9923 39.3441 14.9872L39.7149 17.6282C42.4645 16.8142 45.0694 15.566 47.5385 13.929C50.1977 12.1653 52.7121 9.94933 55.0908 7.32639L55.4707 6.91034L58.8443 10.2116L58.4735 10.6005C56.9359 12.2195 55.3079 13.6938 53.5442 14.9872C52.1423 16.0183 50.6589 16.9227 49.0761 17.7006C50.5142 18.0804 52.088 18.0895 53.8065 17.7187C56.0767 17.2303 58.5911 16.0816 61.3678 14.2455L61.8471 13.929L64.1173 17.9267L63.647 18.198C60.3819 20.0612 57.1078 21.427 53.8246 21.8973C50.5866 22.3586 47.3396 21.9515 44.0925 20.2783L40.5561 21.7797C41.6414 25.7232 42.9167 29.3953 44.4272 32.7418C45.7929 35.7898 47.3486 38.5756 49.1033 41.0809L50.0801 40.1312C50.2791 39.9323 50.4871 39.7423 50.7132 39.5433C54.1592 36.5043 57.9127 35.7536 61.7476 36.7395C65.4288 37.6801 69.1461 40.2398 72.7007 43.8757C73.2614 44.4455 73.8313 45.0606 74.392 45.7027L74.9799 46.363L69.5079 55.2448C69.8697 54.9735 70.2315 54.6931 70.5842 54.3856C72.2485 52.9837 73.8493 51.2833 75.3869 49.2482L76.3366 47.982L77.2863 49.2392C79.1314 51.6722 80.9132 54.3765 82.5955 57.2618C84.3321 60.2284 85.9601 63.3578 87.4344 66.5596L87.769 67.2832L81.3112 74.2657C83.3281 73.4335 85.3541 72.0859 87.4072 70.3312L88.6554 69.264L89.2885 70.7835C91.007 74.935 92.4632 79.1497 93.5757 83.2198C94.661 87.1995 95.4208 91.0344 95.7826 94.5166L95.9363 96.0089L94.444 95.8099H94.4349ZM46.3899 43.731L48.3164 41.8497C46.4713 39.2449 44.8523 36.3506 43.4323 33.185C41.8404 29.6485 40.5018 25.7684 39.3803 21.6079L39.2537 21.1556L44.1287 19.0844L44.3548 19.211C47.4571 20.8662 50.5504 21.2822 53.6527 20.83C56.6284 20.4049 59.6222 19.1839 62.625 17.5197L61.4582 15.4666C58.7539 17.2031 56.2757 18.2975 54.0054 18.7769C51.5544 19.3015 49.3565 19.1206 47.3938 18.2613L46.2452 17.7639L47.3938 17.2664C49.3565 16.4162 51.1745 15.349 52.8749 14.1008C54.4396 12.9521 55.9048 11.6497 57.2886 10.2297L55.4797 8.46601C53.1553 10.9714 50.6951 13.1059 48.0993 14.8334C45.3497 16.6604 42.4464 18.0081 39.3712 18.8492L38.7743 19.012L38.1321 14.3902L38.4758 14.2184C40.3481 13.2597 42.166 11.9301 43.9297 10.2388C45.5939 8.6469 47.2039 6.73849 48.7596 4.50447L46.6793 3.12064C45.6663 4.86625 44.5538 6.47619 43.3057 7.86907C41.9309 9.4157 40.3933 10.7091 38.6477 11.6769L38.0236 12.0296L37.8608 11.3332C37.49 9.78653 37.3181 8.12232 37.291 6.35861C37.2729 4.77581 37.3814 3.12968 37.5895 1.42025L35.7986 1.21222C35.4007 4.89339 35.3373 8.4027 35.6087 11.7492C35.8891 15.2585 36.5312 18.5779 37.5352 21.7073L38.1321 23.5886L36.6579 22.2772C32.1898 18.3066 29.2232 12.8617 26.9078 6.79276L24.9089 7.66104C26.4103 11.704 28.2283 15.3399 30.4352 18.4694C32.7234 21.7073 35.4187 24.3936 38.6205 26.4377L38.7653 26.5281L39.8868 29.2777L39.516 29.5219C36.8026 31.3308 34.1073 30.8695 31.4301 28.2376L30.4352 30.1008C31.9456 31.0414 33.4561 31.566 34.9303 31.7831C36.8116 32.0634 38.6296 31.8554 40.3028 31.376L40.7551 31.2494L45.3859 41.8497L43.9297 40.9814C41.9128 39.7695 39.7963 38.9374 37.4809 38.3585C35.1474 37.7706 32.6149 37.445 29.793 37.237L29.5036 37.2189L26.7088 32.3076L26.7721 32.0906C27.5137 29.5762 27.3509 26.7362 26.2746 23.5524C25.2074 20.3868 23.2356 16.8956 20.3504 13.0607L18.2701 13.2325C20.5584 16.1268 22.3764 18.8492 23.5703 21.3546C24.8998 24.1403 25.4697 26.6638 25.0898 28.8435L24.8727 30.0555L24.122 29.0878C22.304 26.7362 20.2057 24.9182 17.8541 23.6519C15.6472 22.458 13.1961 21.7345 10.5099 21.4812L10.329 23.6881C11.9118 23.9233 13.368 24.2851 14.6975 24.7825C16.1808 25.3342 17.5013 26.0397 18.6771 26.899L19.3103 27.3602L18.6591 27.7853C16.615 29.133 14.4533 30.0103 12.156 30.4083C10.0576 30.7701 7.85978 30.7429 5.5534 30.3178L5.48104 32.6061C8.4115 32.9227 11.143 32.8322 13.6483 32.2896C16.2803 31.7197 18.6771 30.6344 20.8117 28.9973L21.2368 28.6717L27.8846 37.0742L26.5188 36.8571C22.3583 36.2059 18.1435 35.9888 13.9016 36.034C9.84055 36.0793 5.74334 36.3868 1.62803 36.8028L1.93555 38.7745C4.06104 38.5123 6.18652 38.3133 8.31201 38.1866C10.6093 38.051 12.9248 37.9877 15.2492 38.0058L16.5878 38.0148L10.7541 43.6044L10.4918 43.5682C8.94513 43.333 7.36232 43.3421 5.76143 43.532C4.34142 43.7039 2.89428 44.0295 1.4381 44.4546L2.11644 45.9831C3.31033 45.4495 4.42282 45.0606 5.44486 44.8254C6.62971 44.545 7.71506 44.4636 8.67379 44.5722L9.92195 44.7169L3.94346 49.7095L5.53531 51.3194L15.1769 42.3381L15.2764 43.4416C15.4754 45.6575 14.9869 47.8373 13.992 49.9808C13.0695 51.9616 11.7037 53.9243 10.0395 55.8598L11.7761 57.6145C13.793 55.2539 15.3578 52.7575 16.2532 50.0803C17.1938 47.2403 17.3928 44.1742 16.5697 40.7915L16.5155 40.5654L18.2249 37.9786L18.5234 37.9877C21.1916 38.06 23.8145 38.2138 26.3651 38.4489C28.9247 38.6931 31.421 39.0278 33.8269 39.471L34.668 39.6247L31.6471 43.7672L31.222 43.5139C30.408 43.0255 29.0875 42.727 27.36 42.5733C25.6958 42.4286 23.6788 42.4286 21.3815 42.5371L21.3363 44.6897C22.8196 44.5088 24.1672 44.4093 25.334 44.4184C26.6997 44.4274 27.8484 44.5722 28.7257 44.8887L29.386 45.1239L28.988 45.7027C28.165 46.9057 26.9892 47.7468 25.5511 48.3257C24.2848 48.8322 22.8286 49.1306 21.2368 49.2844L21.1825 51.8802C24.2125 51.2109 27.0706 50.1889 29.594 48.4885C32.2984 46.6705 34.6409 44.0657 36.4317 40.276L36.6488 39.8147L46.3266 43.74L46.3899 43.731ZM86.747 91.8846C88.9629 92.4453 91.1336 92.8976 93.2229 93.2232C92.834 90.2746 92.1647 87.109 91.2693 83.8349C90.3196 80.3617 89.1076 76.762 87.6786 73.1803C84.4316 75.7128 81.1574 77.2956 77.838 77.5398L74.8171 77.7659L84.9381 66.831C83.5814 63.9367 82.098 61.1148 80.5424 58.4556C79.1947 56.1583 77.7747 53.9605 76.3004 51.9164C74.9528 53.5716 73.5509 54.9916 72.1128 56.2035C70.2948 57.7321 68.4045 58.926 66.4418 59.8123L62.8963 61.4223L72.0223 46.6162C71.6877 46.2454 71.344 45.8927 71.0003 45.5399C67.7352 42.2025 64.3887 39.878 61.1507 39.0459C58.0755 38.259 55.0637 38.865 52.2779 41.3161C52.1061 41.4698 51.9252 41.6326 51.7443 41.8135L43.2243 50.1527C41.0445 52.2782 39.9772 54.5665 39.8144 56.9271C39.6516 59.2064 40.33 61.6032 41.6595 64.0271L61.3859 51.6812L58.7539 55.9865C57.2796 58.3923 55.4888 60.7801 53.1372 63.1136C51.0569 65.1848 48.5335 67.2108 45.404 69.1826C48.2802 72.3844 52.0789 75.5138 56.4475 78.4262C61.4039 81.7275 67.0749 84.7303 72.9087 87.1904L85.6435 78.0463L84.7391 81.3024C84.2235 83.1656 83.4909 84.9383 82.487 86.6025C81.7996 87.7512 80.9765 88.8365 79.9997 89.8767C82.2518 90.6364 84.513 91.3057 86.747 91.8665V91.8846ZM67.9884 65.818C66.686 66.4601 65.4831 67.2561 64.3706 68.2148C63.2038 69.2278 62.1366 70.4307 61.1778 71.8417C62.842 70.9372 64.2349 69.9061 65.4198 68.7937C66.4147 67.853 67.2649 66.8581 67.9884 65.818ZM62.8059 66.4149C65.0218 64.4975 67.5633 63.1679 70.3853 62.3358L72.963 61.576L71.7872 64C70.6747 66.3064 69.1552 68.5404 67.0478 70.5302C64.9404 72.511 62.236 74.2476 58.7448 75.559L55.9862 76.5992L57.2434 73.94C58.7267 70.8106 60.5899 68.3324 62.7968 66.424L62.8059 66.4149Z" fill="#292929"/>
</g>
</g>
<defs>
<clipPath id="clip0_22_286">
<rect width="95.9363" height="96" fill="white"/>
</clipPath>
</defs>
</svg>
