<svg width="75" height="96" viewBox="0 0 75 96" fill="none" xmlns="http://www.w3.org/2000/svg">
<g id="Icon_4 1" clip-path="url(#clip0_22_317)">
<g id="&#208;&#161;&#208;&#187;&#208;&#190;&#208;&#185;_x0020_1">
<path id="Vector" d="M68.0169 40.3085C69.9845 43.1407 71.5347 46.271 72.608 49.61C73.6812 52.9638 74.2626 56.5115 74.2626 60.1784C74.2626 70.0761 70.1037 79.0347 63.3661 85.5338C56.6435 92.0031 47.3718 96.0129 37.1313 96.0129C26.8907 96.0129 17.6191 92.0031 10.8964 85.5338C4.15882 79.0497 0 70.091 0 60.1784C0 56.9885 0.432279 53.8731 1.25212 50.9068C2.07196 47.9554 3.26445 45.153 4.78488 42.5593C5.05319 38.0279 4.71035 33.3473 4.38242 28.6221C4.12901 24.9999 3.8607 21.3329 3.8607 17.6958C3.8607 13.1644 6.02209 8.73722 9.31636 5.45786C12.5957 2.1785 17.0378 0.00219727 21.5543 0.00219727H51.3518C55.8833 0.00219727 60.3104 2.16359 63.5897 5.45786C66.8691 8.73722 69.0454 13.1793 69.0454 17.6958C69.0454 21.3329 68.7771 24.9999 68.5237 28.6221C68.2405 32.5722 67.9573 36.5074 68.0318 40.3085H68.0169ZM37.1164 41.6351C39.248 41.6351 41.1709 42.4997 42.572 43.886C43.9732 45.2872 44.8229 47.2101 44.8229 49.3416C44.8229 51.4732 43.9583 53.3961 42.572 54.7973C41.1709 56.1985 39.248 57.0481 37.1164 57.0481C34.9848 57.0481 33.0619 56.1836 31.6607 54.7973C30.2595 53.3961 29.4099 51.4732 29.4099 49.3416C29.4099 47.2101 30.2744 45.2872 31.6607 43.886C33.0619 42.4848 34.9848 41.6351 37.1164 41.6351ZM41.7522 44.7058C40.5597 43.5133 38.9349 42.7829 37.1164 42.7829C35.3127 42.7829 33.673 43.5133 32.4806 44.7058C31.2881 45.8983 30.5577 47.5231 30.5577 49.3416C30.5577 51.1453 31.2881 52.785 32.4806 53.9775C33.673 55.17 35.2978 55.9004 37.1164 55.9004C38.92 55.9004 40.5597 55.17 41.7522 53.9775C42.9447 52.785 43.6751 51.1602 43.6751 49.3416C43.6751 47.538 42.9447 45.8983 41.7522 44.7058ZM37.1164 35.4938C40.4852 35.4938 43.5409 36.8652 45.7471 39.0713C47.9532 41.2774 49.3245 44.3332 49.3245 47.702C49.3245 51.0708 47.9532 54.1265 45.7471 56.3326C43.5409 58.5388 40.4852 59.9101 37.1164 59.9101C33.7476 59.9101 30.6918 58.5388 28.4857 56.3326C26.2796 54.1265 24.9082 51.0708 24.9082 47.702C24.9082 44.3332 26.2796 41.2774 28.4857 39.0713C30.6918 36.8652 33.7476 35.4938 37.1164 35.4938ZM43.9583 40.86C42.1994 39.1011 39.7846 38.0279 37.1164 38.0279C34.4482 38.0279 32.0185 39.116 30.2744 40.86C28.5155 42.619 27.4423 45.0338 27.4423 47.702C27.4423 50.3702 28.5304 52.7999 30.2744 54.5439C32.0334 56.3028 34.4482 57.3761 37.1164 57.3761C39.7846 57.3761 42.2143 56.2879 43.9583 54.5439C45.7172 52.785 46.7905 50.3702 46.7905 47.702C46.7905 45.0338 45.7023 42.604 43.9583 40.86ZM70.1932 50.3553C69.1646 47.1504 67.6442 44.1394 65.7213 41.4265L65.4977 41.1134L65.4828 40.7259C65.3785 36.6267 65.6766 32.5424 65.9747 28.4283C66.2281 24.8657 66.4815 21.2733 66.4815 17.6809C66.4815 13.85 64.6183 10.0788 61.7712 7.23169C58.939 4.39952 55.1528 2.52134 51.322 2.52134H21.5245C17.6936 2.52134 13.9224 4.38461 11.0753 7.23169C8.24311 10.0639 6.36494 13.85 6.36494 17.6809C6.36494 21.2733 6.61834 24.8657 6.87175 28.4283C7.2295 33.3324 7.57234 38.2067 7.25931 43.0065L7.2444 43.3046L7.08043 43.5729C5.58982 46.0474 4.44204 48.7305 3.65201 51.5627C2.8918 54.2905 2.48933 57.1674 2.48933 60.1486C2.48933 69.3308 6.35003 77.6485 12.5957 83.6706C18.8563 89.7076 27.5168 93.4341 37.0717 93.4341C46.6414 93.4341 55.287 89.7076 61.5476 83.6706C67.7933 77.6485 71.654 69.3308 71.654 60.1486C71.654 56.7202 71.1174 53.4259 70.1336 50.3404L70.1932 50.3553ZM24.8337 13.6861C22.9406 13.6861 21.2115 14.5208 19.9743 15.8624C18.7072 17.2337 17.9172 19.1417 17.9172 21.2584C17.9172 22.749 18.3048 24.1204 18.9756 25.2831C19.5569 26.2967 20.3469 27.1463 21.286 27.7575C23.5368 26.729 25.892 25.924 28.3366 25.3427C30.9303 24.7315 33.6432 24.3887 36.4456 24.344H36.4903C39.2927 24.3887 42.0056 24.7465 44.5993 25.3427C47.0439 25.9091 49.3991 26.729 51.6499 27.7575C52.589 27.1463 53.379 26.2967 53.9604 25.2831C54.6311 24.1204 55.0187 22.749 55.0187 21.2584C55.0187 19.1417 54.2287 17.2337 52.9616 15.8624C51.7095 14.5208 49.9953 13.6861 48.1022 13.6861H24.8784H24.8337ZM18.111 14.1482C19.8252 12.2998 22.2102 11.152 24.8337 11.152H48.0575C50.681 11.152 53.0511 12.2998 54.7802 14.1482C56.4795 15.9816 57.5229 18.4859 57.5229 21.2584C57.5229 23.1813 57.0161 24.9999 56.1217 26.5352C55.1976 28.1302 53.8709 29.4419 52.2909 30.2915L51.7244 30.5897L51.1431 30.3065C48.8923 29.2332 46.5073 28.3836 43.9881 27.8022C41.5435 27.2358 39.0244 26.9078 36.4307 26.8631C33.837 26.9078 31.3179 27.2358 28.8733 27.8022C26.369 28.3985 23.9691 29.2332 21.7183 30.3065L21.137 30.5897L20.5705 30.2915C18.9905 29.4419 17.6638 28.1302 16.7396 26.5352C15.8602 24.9849 15.3385 23.1813 15.3385 21.2584C15.3385 18.4859 16.3819 15.9816 18.0812 14.1482H18.111Z" fill="#292929"/>
</g>
</g>
<defs>
<clipPath id="clip0_22_317">
<rect width="74.2626" height="96" fill="white"/>
</clipPath>
</defs>
</svg>
